# MagicaVoxel @ Ephtracy

# group
o 

# material
mtllib cuored'oro.mtl
usemtl palette

# normals
vn -1 0 0
vn 1 0 0
vn 0 0 1
vn 0 0 -1
vn 0 -1 0
vn 0 1 0

# texcoords
vt 0.841797 0.5
vt 0.876953 0.5

# verts
v -0.7 0.6 0.1
v -0.7 0.6 0
v -0.7 0.9 0.1
v -0.7 0.9 0
v -0.6 0.5 0.1
v -0.6 0.5 0
v -0.6 0.6 0.2
v -0.6 0.6 0.1
v -0.6 0.6 0
v -0.6 0.6 -0.1
v -0.6 0.9 0.2
v -0.6 0.9 0.1
v -0.6 0.9 0
v -0.6 0.9 -0.1
v -0.6 1.1 0.1
v -0.6 1.1 0
v -0.5 0.4 0.1
v -0.5 0.4 0
v -0.5 0.5 0.2
v -0.5 0.5 0.1
v -0.5 0.5 0
v -0.5 0.5 -0.1
v -0.5 0.6 0.2
v -0.5 0.6 0.1
v -0.5 0.6 0
v -0.5 0.6 -0.1
v -0.5 0.9 0.2
v -0.5 0.9 0.1
v -0.5 0.9 0
v -0.5 0.9 -0.1
v -0.5 1 0.2
v -0.5 1 0.1
v -0.5 1 0
v -0.5 1 -0.1
v -0.5 1.1 0.1
v -0.5 1.1 0
v -0.5 1.2 0.1
v -0.5 1.2 0
v -0.4 0.3 0.1
v -0.4 0.3 0
v -0.4 0.4 0.2
v -0.4 0.4 0.1
v -0.4 0.4 0
v -0.4 0.4 -0.1
v -0.4 0.5 0.2
v -0.4 0.5 0.1
v -0.4 0.5 0
v -0.4 0.5 -0.1
v -0.4 1 0.2
v -0.4 1 0.1
v -0.4 1 0
v -0.4 1 -0.1
v -0.4 1.1 0.2
v -0.4 1.1 0.1
v -0.4 1.1 0
v -0.4 1.1 -0.1
v -0.3 0.2 0.1
v -0.3 0.2 0
v -0.3 0.3 0.2
v -0.3 0.3 0.1
v -0.3 0.3 0
v -0.3 0.3 -0.1
v -0.3 0.4 0.2
v -0.3 0.4 0.1
v -0.3 0.4 0
v -0.3 0.4 -0.1
v -0.2 0.1 0.1
v -0.2 0.1 0
v -0.2 0.2 0.2
v -0.2 0.2 0.1
v -0.2 0.2 0
v -0.2 0.2 -0.1
v -0.2 0.3 0.2
v -0.2 0.3 0.1
v -0.2 0.3 0
v -0.2 0.3 -0.1
v -0.1 0 0.1
v -0.1 0 0
v -0.1 0.1 0.2
v -0.1 0.1 0.1
v -0.1 0.1 0
v -0.1 0.1 -0.1
v -0.1 0.2 0.2
v -0.1 0.2 0.1
v -0.1 0.2 0
v -0.1 0.2 -0.1
v 0 1 0.1
v 0 1 0
v 0 1.1 0.1
v 0 1.1 0
v 0.1 0.9 0.2
v 0.1 0.9 0.1
v 0.1 0.9 0
v 0.1 0.9 -0.1
v 0.1 1 0.2
v 0.1 1 0.1
v 0.1 1 0
v 0.1 1 -0.1
v 0.1 1.1 0.1
v 0.1 1.1 0
v 0.1 1.2 0.1
v 0.1 1.2 0
v 0.2 1 0.2
v 0.2 1 0.1
v 0.2 1 0
v 0.2 1 -0.1
v 0.2 1.1 0.2
v 0.2 1.1 0.1
v 0.2 1.1 0
v 0.2 1.1 -0.1
v -0.3 1 0.2
v -0.3 1 0.1
v -0.3 1 0
v -0.3 1 -0.1
v -0.3 1.1 0.2
v -0.3 1.1 0.1
v -0.3 1.1 0
v -0.3 1.1 -0.1
v -0.2 0.9 0.2
v -0.2 0.9 0.1
v -0.2 0.9 0
v -0.2 0.9 -0.1
v -0.2 1 0.2
v -0.2 1 0.1
v -0.2 1 0
v -0.2 1 -0.1
v -0.2 1.1 0.1
v -0.2 1.1 0
v -0.2 1.2 0.1
v -0.2 1.2 0
v -0.1 1 0.1
v -0.1 1 0
v -0.1 1.1 0.1
v -0.1 1.1 0
v 0 0 0.1
v 0 0 0
v 0 0.1 0.2
v 0 0.1 0.1
v 0 0.1 0
v 0 0.1 -0.1
v 0 0.2 0.2
v 0 0.2 0.1
v 0 0.2 0
v 0 0.2 -0.1
v 0.1 0.1 0.1
v 0.1 0.1 0
v 0.1 0.2 0.2
v 0.1 0.2 0.1
v 0.1 0.2 0
v 0.1 0.2 -0.1
v 0.1 0.3 0.2
v 0.1 0.3 0.1
v 0.1 0.3 0
v 0.1 0.3 -0.1
v 0.2 0.2 0.1
v 0.2 0.2 0
v 0.2 0.3 0.2
v 0.2 0.3 0.1
v 0.2 0.3 0
v 0.2 0.3 -0.1
v 0.2 0.4 0.2
v 0.2 0.4 0.1
v 0.2 0.4 0
v 0.2 0.4 -0.1
v 0.3 0.3 0.1
v 0.3 0.3 0
v 0.3 0.4 0.2
v 0.3 0.4 0.1
v 0.3 0.4 0
v 0.3 0.4 -0.1
v 0.3 0.5 0.2
v 0.3 0.5 0.1
v 0.3 0.5 0
v 0.3 0.5 -0.1
v 0.3 1 0.2
v 0.3 1 0.1
v 0.3 1 0
v 0.3 1 -0.1
v 0.3 1.1 0.2
v 0.3 1.1 0.1
v 0.3 1.1 0
v 0.3 1.1 -0.1
v 0.4 0.4 0.1
v 0.4 0.4 0
v 0.4 0.5 0.2
v 0.4 0.5 0.1
v 0.4 0.5 0
v 0.4 0.5 -0.1
v 0.4 0.6 0.2
v 0.4 0.6 0.1
v 0.4 0.6 0
v 0.4 0.6 -0.1
v 0.4 0.9 0.2
v 0.4 0.9 0.1
v 0.4 0.9 0
v 0.4 0.9 -0.1
v 0.4 1 0.2
v 0.4 1 0.1
v 0.4 1 0
v 0.4 1 -0.1
v 0.4 1.1 0.1
v 0.4 1.1 0
v 0.4 1.2 0.1
v 0.4 1.2 0
v 0.5 0.5 0.1
v 0.5 0.5 0
v 0.5 0.6 0.2
v 0.5 0.6 0.1
v 0.5 0.6 0
v 0.5 0.6 -0.1
v 0.5 0.9 0.2
v 0.5 0.9 0.1
v 0.5 0.9 0
v 0.5 0.9 -0.1
v 0.5 1.1 0.1
v 0.5 1.1 0
v 0.6 0.6 0.1
v 0.6 0.6 0
v 0.6 0.9 0.1
v 0.6 0.9 0
v -0.6 0.6 0.2
v -0.6 0.9 0.2
v -0.5 0.5 0.2
v -0.5 0.6 0.2
v -0.5 0.9 0.2
v -0.5 1 0.2
v -0.4 0.4 0.2
v -0.4 0.5 0.2
v -0.4 1 0.2
v -0.4 1.1 0.2
v -0.3 0.3 0.2
v -0.3 0.4 0.2
v -0.3 1 0.2
v -0.3 1.1 0.2
v -0.2 0.2 0.2
v -0.2 0.3 0.2
v -0.2 0.9 0.2
v -0.2 1 0.2
v -0.1 0.1 0.2
v -0.1 0.2 0.2
v 0 0.1 0.2
v 0 0.2 0.2
v 0.1 0.2 0.2
v 0.1 0.3 0.2
v 0.1 0.9 0.2
v 0.1 1 0.2
v 0.2 0.3 0.2
v 0.2 0.4 0.2
v 0.2 1 0.2
v 0.2 1.1 0.2
v 0.3 0.4 0.2
v 0.3 0.5 0.2
v 0.3 1 0.2
v 0.3 1.1 0.2
v 0.4 0.5 0.2
v 0.4 0.6 0.2
v 0.4 0.9 0.2
v 0.4 1 0.2
v 0.5 0.6 0.2
v 0.5 0.9 0.2
v -0.7 0.6 0.1
v -0.7 0.9 0.1
v -0.6 0.5 0.1
v -0.6 0.6 0.1
v -0.6 0.9 0.1
v -0.6 1.1 0.1
v -0.5 0.4 0.1
v -0.5 0.5 0.1
v -0.5 0.6 0.1
v -0.5 0.9 0.1
v -0.5 1 0.1
v -0.5 1.1 0.1
v -0.5 1.2 0.1
v -0.4 0.3 0.1
v -0.4 0.4 0.1
v -0.4 0.5 0.1
v -0.4 1 0.1
v -0.4 1.1 0.1
v -0.3 0.2 0.1
v -0.3 0.3 0.1
v -0.3 0.4 0.1
v -0.3 1 0.1
v -0.3 1.1 0.1
v -0.2 0.1 0.1
v -0.2 0.2 0.1
v -0.2 0.3 0.1
v -0.2 0.9 0.1
v -0.2 1 0.1
v -0.2 1.1 0.1
v -0.2 1.2 0.1
v -0.1 0 0.1
v -0.1 0.1 0.1
v -0.1 0.2 0.1
v -0.1 1 0.1
v -0.1 1.1 0.1
v 0 0 0.1
v 0 0.1 0.1
v 0 0.2 0.1
v 0 1 0.1
v 0 1.1 0.1
v 0.1 0.1 0.1
v 0.1 0.2 0.1
v 0.1 0.3 0.1
v 0.1 0.9 0.1
v 0.1 1 0.1
v 0.1 1.1 0.1
v 0.1 1.2 0.1
v 0.2 0.2 0.1
v 0.2 0.3 0.1
v 0.2 0.4 0.1
v 0.2 1 0.1
v 0.2 1.1 0.1
v 0.3 0.3 0.1
v 0.3 0.4 0.1
v 0.3 0.5 0.1
v 0.3 1 0.1
v 0.3 1.1 0.1
v 0.4 0.4 0.1
v 0.4 0.5 0.1
v 0.4 0.6 0.1
v 0.4 0.9 0.1
v 0.4 1 0.1
v 0.4 1.1 0.1
v 0.4 1.2 0.1
v 0.5 0.5 0.1
v 0.5 0.6 0.1
v 0.5 0.9 0.1
v 0.5 1.1 0.1
v 0.6 0.6 0.1
v 0.6 0.9 0.1
v -0.7 0.6 0
v -0.7 0.9 0
v -0.6 0.5 0
v -0.6 0.6 0
v -0.6 0.9 0
v -0.6 1.1 0
v -0.5 0.4 0
v -0.5 0.5 0
v -0.5 0.6 0
v -0.5 0.9 0
v -0.5 1 0
v -0.5 1.1 0
v -0.5 1.2 0
v -0.4 0.3 0
v -0.4 0.4 0
v -0.4 0.5 0
v -0.4 1 0
v -0.4 1.1 0
v -0.3 0.2 0
v -0.3 0.3 0
v -0.3 0.4 0
v -0.3 1 0
v -0.3 1.1 0
v -0.2 0.1 0
v -0.2 0.2 0
v -0.2 0.3 0
v -0.2 0.9 0
v -0.2 1 0
v -0.2 1.1 0
v -0.2 1.2 0
v -0.1 0 0
v -0.1 0.1 0
v -0.1 0.2 0
v -0.1 1 0
v -0.1 1.1 0
v 0 0 0
v 0 0.1 0
v 0 0.2 0
v 0 1 0
v 0 1.1 0
v 0.1 0.1 0
v 0.1 0.2 0
v 0.1 0.3 0
v 0.1 0.9 0
v 0.1 1 0
v 0.1 1.1 0
v 0.1 1.2 0
v 0.2 0.2 0
v 0.2 0.3 0
v 0.2 0.4 0
v 0.2 1 0
v 0.2 1.1 0
v 0.3 0.3 0
v 0.3 0.4 0
v 0.3 0.5 0
v 0.3 1 0
v 0.3 1.1 0
v 0.4 0.4 0
v 0.4 0.5 0
v 0.4 0.6 0
v 0.4 0.9 0
v 0.4 1 0
v 0.4 1.1 0
v 0.4 1.2 0
v 0.5 0.5 0
v 0.5 0.6 0
v 0.5 0.9 0
v 0.5 1.1 0
v 0.6 0.6 0
v 0.6 0.9 0
v -0.6 0.6 -0.1
v -0.6 0.9 -0.1
v -0.5 0.5 -0.1
v -0.5 0.6 -0.1
v -0.5 0.9 -0.1
v -0.5 1 -0.1
v -0.4 0.4 -0.1
v -0.4 0.5 -0.1
v -0.4 1 -0.1
v -0.4 1.1 -0.1
v -0.3 0.3 -0.1
v -0.3 0.4 -0.1
v -0.3 1 -0.1
v -0.3 1.1 -0.1
v -0.2 0.2 -0.1
v -0.2 0.3 -0.1
v -0.2 0.9 -0.1
v -0.2 1 -0.1
v -0.1 0.1 -0.1
v -0.1 0.2 -0.1
v 0 0.1 -0.1
v 0 0.2 -0.1
v 0.1 0.2 -0.1
v 0.1 0.3 -0.1
v 0.1 0.9 -0.1
v 0.1 1 -0.1
v 0.2 0.3 -0.1
v 0.2 0.4 -0.1
v 0.2 1 -0.1
v 0.2 1.1 -0.1
v 0.3 0.4 -0.1
v 0.3 0.5 -0.1
v 0.3 1 -0.1
v 0.3 1.1 -0.1
v 0.4 0.5 -0.1
v 0.4 0.6 -0.1
v 0.4 0.9 -0.1
v 0.4 1 -0.1
v 0.5 0.6 -0.1
v 0.5 0.9 -0.1
v -0.1 0 0.1
v 0 0 0.1
v -0.1 0 0
v 0 0 0
v -0.1 0.1 0.2
v 0 0.1 0.2
v -0.2 0.1 0.1
v -0.1 0.1 0.1
v 0 0.1 0.1
v 0.1 0.1 0.1
v -0.2 0.1 0
v -0.1 0.1 0
v 0 0.1 0
v 0.1 0.1 0
v -0.1 0.1 -0.1
v 0 0.1 -0.1
v -0.2 0.2 0.2
v -0.1 0.2 0.2
v 0 0.2 0.2
v 0.1 0.2 0.2
v -0.3 0.2 0.1
v -0.2 0.2 0.1
v -0.1 0.2 0.1
v 0 0.2 0.1
v 0.1 0.2 0.1
v 0.2 0.2 0.1
v -0.3 0.2 0
v -0.2 0.2 0
v -0.1 0.2 0
v 0 0.2 0
v 0.1 0.2 0
v 0.2 0.2 0
v -0.2 0.2 -0.1
v -0.1 0.2 -0.1
v 0 0.2 -0.1
v 0.1 0.2 -0.1
v -0.3 0.3 0.2
v -0.2 0.3 0.2
v 0.1 0.3 0.2
v 0.2 0.3 0.2
v -0.4 0.3 0.1
v -0.3 0.3 0.1
v -0.2 0.3 0.1
v 0.1 0.3 0.1
v 0.2 0.3 0.1
v 0.3 0.3 0.1
v -0.4 0.3 0
v -0.3 0.3 0
v -0.2 0.3 0
v 0.1 0.3 0
v 0.2 0.3 0
v 0.3 0.3 0
v -0.3 0.3 -0.1
v -0.2 0.3 -0.1
v 0.1 0.3 -0.1
v 0.2 0.3 -0.1
v -0.4 0.4 0.2
v -0.3 0.4 0.2
v 0.2 0.4 0.2
v 0.3 0.4 0.2
v -0.5 0.4 0.1
v -0.4 0.4 0.1
v -0.3 0.4 0.1
v 0.2 0.4 0.1
v 0.3 0.4 0.1
v 0.4 0.4 0.1
v -0.5 0.4 0
v -0.4 0.4 0
v -0.3 0.4 0
v 0.2 0.4 0
v 0.3 0.4 0
v 0.4 0.4 0
v -0.4 0.4 -0.1
v -0.3 0.4 -0.1
v 0.2 0.4 -0.1
v 0.3 0.4 -0.1
v -0.5 0.5 0.2
v -0.4 0.5 0.2
v 0.3 0.5 0.2
v 0.4 0.5 0.2
v -0.6 0.5 0.1
v -0.5 0.5 0.1
v -0.4 0.5 0.1
v 0.3 0.5 0.1
v 0.4 0.5 0.1
v 0.5 0.5 0.1
v -0.6 0.5 0
v -0.5 0.5 0
v -0.4 0.5 0
v 0.3 0.5 0
v 0.4 0.5 0
v 0.5 0.5 0
v -0.5 0.5 -0.1
v -0.4 0.5 -0.1
v 0.3 0.5 -0.1
v 0.4 0.5 -0.1
v -0.6 0.6 0.2
v -0.5 0.6 0.2
v 0.4 0.6 0.2
v 0.5 0.6 0.2
v -0.7 0.6 0.1
v -0.6 0.6 0.1
v -0.5 0.6 0.1
v 0.4 0.6 0.1
v 0.5 0.6 0.1
v 0.6 0.6 0.1
v -0.7 0.6 0
v -0.6 0.6 0
v -0.5 0.6 0
v 0.4 0.6 0
v 0.5 0.6 0
v 0.6 0.6 0
v -0.6 0.6 -0.1
v -0.5 0.6 -0.1
v 0.4 0.6 -0.1
v 0.5 0.6 -0.1
v -0.6 0.9 0.2
v -0.5 0.9 0.2
v -0.2 0.9 0.2
v 0.1 0.9 0.2
v 0.4 0.9 0.2
v 0.5 0.9 0.2
v -0.7 0.9 0.1
v -0.6 0.9 0.1
v -0.5 0.9 0.1
v -0.2 0.9 0.1
v 0.1 0.9 0.1
v 0.4 0.9 0.1
v 0.5 0.9 0.1
v 0.6 0.9 0.1
v -0.7 0.9 0
v -0.6 0.9 0
v -0.5 0.9 0
v -0.2 0.9 0
v 0.1 0.9 0
v 0.4 0.9 0
v 0.5 0.9 0
v 0.6 0.9 0
v -0.6 0.9 -0.1
v -0.5 0.9 -0.1
v -0.2 0.9 -0.1
v 0.1 0.9 -0.1
v 0.4 0.9 -0.1
v 0.5 0.9 -0.1
v -0.5 1 0.2
v -0.4 1 0.2
v -0.3 1 0.2
v -0.2 1 0.2
v 0.1 1 0.2
v 0.2 1 0.2
v 0.3 1 0.2
v 0.4 1 0.2
v -0.5 1 0.1
v -0.4 1 0.1
v -0.3 1 0.1
v -0.2 1 0.1
v -0.1 1 0.1
v 0 1 0.1
v 0.1 1 0.1
v 0.2 1 0.1
v 0.3 1 0.1
v 0.4 1 0.1
v -0.5 1 0
v -0.4 1 0
v -0.3 1 0
v -0.2 1 0
v -0.1 1 0
v 0 1 0
v 0.1 1 0
v 0.2 1 0
v 0.3 1 0
v 0.4 1 0
v -0.5 1 -0.1
v -0.4 1 -0.1
v -0.3 1 -0.1
v -0.2 1 -0.1
v 0.1 1 -0.1
v 0.2 1 -0.1
v 0.3 1 -0.1
v 0.4 1 -0.1
v -0.4 1.1 0.2
v -0.3 1.1 0.2
v 0.2 1.1 0.2
v 0.3 1.1 0.2
v -0.6 1.1 0.1
v -0.5 1.1 0.1
v -0.4 1.1 0.1
v -0.3 1.1 0.1
v -0.2 1.1 0.1
v -0.1 1.1 0.1
v 0 1.1 0.1
v 0.1 1.1 0.1
v 0.2 1.1 0.1
v 0.3 1.1 0.1
v 0.4 1.1 0.1
v 0.5 1.1 0.1
v -0.6 1.1 0
v -0.5 1.1 0
v -0.4 1.1 0
v -0.3 1.1 0
v -0.2 1.1 0
v -0.1 1.1 0
v 0 1.1 0
v 0.1 1.1 0
v 0.2 1.1 0
v 0.3 1.1 0
v 0.4 1.1 0
v 0.5 1.1 0
v -0.4 1.1 -0.1
v -0.3 1.1 -0.1
v 0.2 1.1 -0.1
v 0.3 1.1 -0.1
v -0.5 1.2 0.1
v -0.2 1.2 0.1
v 0.1 1.2 0.1
v 0.4 1.2 0.1
v -0.5 1.2 0
v -0.2 1.2 0
v 0.1 1.2 0
v 0.4 1.2 0

# faces
f 3/2/1 2/2/1 1/2/1
f 4/2/1 2/2/1 3/2/1
f 8/2/1 6/2/1 5/2/1
f 9/2/1 6/2/1 8/2/1
f 11/1/1 8/1/1 7/1/1
f 12/1/1 8/1/1 11/1/1
f 13/1/1 10/1/1 9/1/1
f 14/1/1 10/1/1 13/1/1
f 15/2/1 13/2/1 12/2/1
f 16/2/1 13/2/1 15/2/1
f 20/2/1 18/2/1 17/2/1
f 21/2/1 18/2/1 20/2/1
f 23/1/1 20/1/1 19/1/1
f 24/1/1 20/1/1 23/1/1
f 25/1/1 22/1/1 21/1/1
f 26/1/1 22/1/1 25/1/1
f 31/1/1 28/1/1 27/1/1
f 32/1/1 28/1/1 31/1/1
f 33/1/1 30/1/1 29/1/1
f 34/1/1 30/1/1 33/1/1
f 37/2/1 36/2/1 35/2/1
f 38/2/1 36/2/1 37/2/1
f 42/2/1 40/2/1 39/2/1
f 43/2/1 40/2/1 42/2/1
f 45/1/1 42/1/1 41/1/1
f 46/1/1 42/1/1 45/1/1
f 47/1/1 44/1/1 43/1/1
f 48/1/1 44/1/1 47/1/1
f 53/1/1 50/1/1 49/1/1
f 54/1/1 50/1/1 53/1/1
f 55/1/1 52/1/1 51/1/1
f 56/1/1 52/1/1 55/1/1
f 60/2/1 58/2/1 57/2/1
f 61/2/1 58/2/1 60/2/1
f 63/1/1 60/1/1 59/1/1
f 64/1/1 60/1/1 63/1/1
f 65/1/1 62/1/1 61/1/1
f 66/1/1 62/1/1 65/1/1
f 70/2/1 68/2/1 67/2/1
f 71/2/1 68/2/1 70/2/1
f 73/1/1 70/1/1 69/1/1
f 74/1/1 70/1/1 73/1/1
f 75/1/1 72/1/1 71/1/1
f 76/1/1 72/1/1 75/1/1
f 80/2/1 78/2/1 77/2/1
f 81/2/1 78/2/1 80/2/1
f 83/1/1 80/1/1 79/1/1
f 84/1/1 80/1/1 83/1/1
f 85/1/1 82/1/1 81/1/1
f 86/1/1 82/1/1 85/1/1
f 89/2/1 88/2/1 87/2/1
f 90/2/1 88/2/1 89/2/1
f 95/1/1 92/1/1 91/1/1
f 96/1/1 92/1/1 95/1/1
f 97/1/1 94/1/1 93/1/1
f 98/1/1 94/1/1 97/1/1
f 101/2/1 100/2/1 99/2/1
f 102/2/1 100/2/1 101/2/1
f 107/1/1 104/1/1 103/1/1
f 108/1/1 104/1/1 107/1/1
f 109/1/1 106/1/1 105/1/1
f 110/1/1 106/1/1 109/1/1
f 111/1/2 112/1/2 115/1/2
f 115/1/2 112/1/2 116/1/2
f 113/1/2 114/1/2 117/1/2
f 117/1/2 114/1/2 118/1/2
f 119/1/2 120/1/2 123/1/2
f 123/1/2 120/1/2 124/1/2
f 121/1/2 122/1/2 125/1/2
f 125/1/2 122/1/2 126/1/2
f 127/2/2 128/2/2 129/2/2
f 129/2/2 128/2/2 130/2/2
f 131/2/2 132/2/2 133/2/2
f 133/2/2 132/2/2 134/2/2
f 135/2/2 136/2/2 138/2/2
f 138/2/2 136/2/2 139/2/2
f 137/1/2 138/1/2 141/1/2
f 141/1/2 138/1/2 142/1/2
f 139/1/2 140/1/2 143/1/2
f 143/1/2 140/1/2 144/1/2
f 145/2/2 146/2/2 148/2/2
f 148/2/2 146/2/2 149/2/2
f 147/1/2 148/1/2 151/1/2
f 151/1/2 148/1/2 152/1/2
f 149/1/2 150/1/2 153/1/2
f 153/1/2 150/1/2 154/1/2
f 155/2/2 156/2/2 158/2/2
f 158/2/2 156/2/2 159/2/2
f 157/1/2 158/1/2 161/1/2
f 161/1/2 158/1/2 162/1/2
f 159/1/2 160/1/2 163/1/2
f 163/1/2 160/1/2 164/1/2
f 165/2/2 166/2/2 168/2/2
f 168/2/2 166/2/2 169/2/2
f 167/1/2 168/1/2 171/1/2
f 171/1/2 168/1/2 172/1/2
f 169/1/2 170/1/2 173/1/2
f 173/1/2 170/1/2 174/1/2
f 175/1/2 176/1/2 179/1/2
f 179/1/2 176/1/2 180/1/2
f 177/1/2 178/1/2 181/1/2
f 181/1/2 178/1/2 182/1/2
f 183/2/2 184/2/2 186/2/2
f 186/2/2 184/2/2 187/2/2
f 185/1/2 186/1/2 189/1/2
f 189/1/2 186/1/2 190/1/2
f 187/1/2 188/1/2 191/1/2
f 191/1/2 188/1/2 192/1/2
f 193/1/2 194/1/2 197/1/2
f 197/1/2 194/1/2 198/1/2
f 195/1/2 196/1/2 199/1/2
f 199/1/2 196/1/2 200/1/2
f 201/2/2 202/2/2 203/2/2
f 203/2/2 202/2/2 204/2/2
f 205/2/2 206/2/2 208/2/2
f 208/2/2 206/2/2 209/2/2
f 207/1/2 208/1/2 211/1/2
f 211/1/2 208/1/2 212/1/2
f 209/1/2 210/1/2 213/1/2
f 213/1/2 210/1/2 214/1/2
f 212/2/2 213/2/2 215/2/2
f 215/2/2 213/2/2 216/2/2
f 217/2/2 218/2/2 219/2/2
f 219/2/2 218/2/2 220/2/2
f 224/1/3 222/1/3 221/1/3
f 225/1/3 222/1/3 224/1/3
f 228/1/3 224/1/3 223/1/3
f 228/1/3 226/1/3 225/1/3
f 228/1/3 225/1/3 224/1/3
f 229/1/3 226/1/3 228/1/3
f 232/1/3 228/1/3 227/1/3
f 232/1/3 230/1/3 229/1/3
f 232/1/3 229/1/3 228/1/3
f 233/1/3 230/1/3 232/1/3
f 234/1/3 230/1/3 233/1/3
f 236/1/3 232/1/3 231/1/3
f 236/1/3 233/1/3 232/1/3
f 237/1/3 233/1/3 236/1/3
f 238/1/3 233/1/3 237/1/3
f 240/1/3 236/1/3 235/1/3
f 240/1/3 237/1/3 236/1/3
f 241/1/3 240/1/3 239/1/3
f 242/1/3 237/1/3 240/1/3
f 242/1/3 240/1/3 241/1/3
f 243/1/3 237/1/3 242/1/3
f 244/1/3 237/1/3 243/1/3
f 245/1/3 237/1/3 244/1/3
f 247/1/3 246/1/3 245/1/3
f 247/1/3 245/1/3 244/1/3
f 248/1/3 246/1/3 247/1/3
f 249/1/3 246/1/3 248/1/3
f 251/1/3 249/1/3 248/1/3
f 251/1/3 250/1/3 249/1/3
f 252/1/3 250/1/3 251/1/3
f 253/1/3 250/1/3 252/1/3
f 254/1/3 250/1/3 253/1/3
f 255/1/3 253/1/3 252/1/3
f 256/1/3 253/1/3 255/1/3
f 257/1/3 253/1/3 256/1/3
f 258/1/3 253/1/3 257/1/3
f 259/1/3 257/1/3 256/1/3
f 260/1/3 257/1/3 259/1/3
f 264/2/3 262/2/3 261/2/3
f 265/2/3 262/2/3 264/2/3
f 268/2/3 264/2/3 263/2/3
f 269/2/3 264/2/3 268/2/3
f 270/2/3 266/2/3 265/2/3
f 271/2/3 266/2/3 270/2/3
f 272/2/3 266/2/3 271/2/3
f 275/2/3 268/2/3 267/2/3
f 276/2/3 268/2/3 275/2/3
f 277/2/3 273/2/3 272/2/3
f 277/2/3 272/2/3 271/2/3
f 278/2/3 273/2/3 277/2/3
f 280/2/3 275/2/3 274/2/3
f 281/2/3 275/2/3 280/2/3
f 283/2/3 273/2/3 278/2/3
f 285/2/3 280/2/3 279/2/3
f 286/2/3 280/2/3 285/2/3
f 288/2/3 283/2/3 282/2/3
f 289/2/3 273/2/3 283/2/3
f 289/2/3 283/2/3 288/2/3
f 290/2/3 273/2/3 289/2/3
f 292/2/3 285/2/3 284/2/3
f 293/2/3 285/2/3 292/2/3
f 294/2/3 288/2/3 287/2/3
f 294/2/3 289/2/3 288/2/3
f 295/2/3 289/2/3 294/2/3
f 296/2/3 292/2/3 291/2/3
f 297/2/3 292/2/3 296/2/3
f 299/2/3 294/2/3 287/2/3
f 301/2/3 298/2/3 297/2/3
f 302/2/3 298/2/3 301/2/3
f 304/2/3 300/2/3 299/2/3
f 304/2/3 299/2/3 287/2/3
f 305/2/3 300/2/3 304/2/3
f 306/2/3 300/2/3 305/2/3
f 308/2/3 303/2/3 302/2/3
f 309/2/3 303/2/3 308/2/3
f 311/2/3 306/2/3 305/2/3
f 311/2/3 307/2/3 306/2/3
f 312/2/3 307/2/3 311/2/3
f 313/2/3 310/2/3 309/2/3
f 314/2/3 310/2/3 313/2/3
f 317/2/3 307/2/3 312/2/3
f 318/2/3 315/2/3 314/2/3
f 319/2/3 315/2/3 318/2/3
f 322/2/3 317/2/3 316/2/3
f 323/2/3 307/2/3 317/2/3
f 323/2/3 317/2/3 322/2/3
f 324/2/3 307/2/3 323/2/3
f 325/2/3 320/2/3 319/2/3
f 326/2/3 320/2/3 325/2/3
f 327/2/3 322/2/3 321/2/3
f 327/2/3 323/2/3 322/2/3
f 328/2/3 323/2/3 327/2/3
f 329/2/3 327/2/3 326/2/3
f 330/2/3 327/2/3 329/2/3
f 331/2/4 332/2/4 334/2/4
f 334/2/4 332/2/4 335/2/4
f 333/2/4 334/2/4 338/2/4
f 338/2/4 334/2/4 339/2/4
f 335/2/4 336/2/4 340/2/4
f 340/2/4 336/2/4 341/2/4
f 341/2/4 336/2/4 342/2/4
f 337/2/4 338/2/4 345/2/4
f 345/2/4 338/2/4 346/2/4
f 342/2/4 343/2/4 347/2/4
f 341/2/4 342/2/4 347/2/4
f 347/2/4 343/2/4 348/2/4
f 344/2/4 345/2/4 350/2/4
f 350/2/4 345/2/4 351/2/4
f 348/2/4 343/2/4 353/2/4
f 349/2/4 350/2/4 355/2/4
f 355/2/4 350/2/4 356/2/4
f 352/2/4 353/2/4 358/2/4
f 353/2/4 343/2/4 359/2/4
f 358/2/4 353/2/4 359/2/4
f 359/2/4 343/2/4 360/2/4
f 354/2/4 355/2/4 362/2/4
f 362/2/4 355/2/4 363/2/4
f 357/2/4 358/2/4 364/2/4
f 358/2/4 359/2/4 364/2/4
f 364/2/4 359/2/4 365/2/4
f 361/2/4 362/2/4 366/2/4
f 366/2/4 362/2/4 367/2/4
f 357/2/4 364/2/4 369/2/4
f 367/2/4 368/2/4 371/2/4
f 371/2/4 368/2/4 372/2/4
f 369/2/4 370/2/4 374/2/4
f 357/2/4 369/2/4 374/2/4
f 374/2/4 370/2/4 375/2/4
f 375/2/4 370/2/4 376/2/4
f 372/2/4 373/2/4 378/2/4
f 378/2/4 373/2/4 379/2/4
f 375/2/4 376/2/4 381/2/4
f 376/2/4 377/2/4 381/2/4
f 381/2/4 377/2/4 382/2/4
f 379/2/4 380/2/4 383/2/4
f 383/2/4 380/2/4 384/2/4
f 382/2/4 377/2/4 387/2/4
f 384/2/4 385/2/4 388/2/4
f 388/2/4 385/2/4 389/2/4
f 386/2/4 387/2/4 392/2/4
f 387/2/4 377/2/4 393/2/4
f 392/2/4 387/2/4 393/2/4
f 393/2/4 377/2/4 394/2/4
f 389/2/4 390/2/4 395/2/4
f 395/2/4 390/2/4 396/2/4
f 391/2/4 392/2/4 397/2/4
f 392/2/4 393/2/4 397/2/4
f 397/2/4 393/2/4 398/2/4
f 396/2/4 397/2/4 399/2/4
f 399/2/4 397/2/4 400/2/4
f 401/1/4 402/1/4 404/1/4
f 404/1/4 402/1/4 405/1/4
f 403/1/4 404/1/4 408/1/4
f 405/1/4 406/1/4 408/1/4
f 404/1/4 405/1/4 408/1/4
f 408/1/4 406/1/4 409/1/4
f 407/1/4 408/1/4 412/1/4
f 409/1/4 410/1/4 412/1/4
f 408/1/4 409/1/4 412/1/4
f 412/1/4 410/1/4 413/1/4
f 413/1/4 410/1/4 414/1/4
f 411/1/4 412/1/4 416/1/4
f 412/1/4 413/1/4 416/1/4
f 416/1/4 413/1/4 417/1/4
f 417/1/4 413/1/4 418/1/4
f 415/1/4 416/1/4 420/1/4
f 416/1/4 417/1/4 420/1/4
f 419/1/4 420/1/4 421/1/4
f 420/1/4 417/1/4 422/1/4
f 421/1/4 420/1/4 422/1/4
f 422/1/4 417/1/4 423/1/4
f 423/1/4 417/1/4 424/1/4
f 424/1/4 417/1/4 425/1/4
f 425/1/4 426/1/4 427/1/4
f 424/1/4 425/1/4 427/1/4
f 427/1/4 426/1/4 428/1/4
f 428/1/4 426/1/4 429/1/4
f 428/1/4 429/1/4 431/1/4
f 429/1/4 430/1/4 431/1/4
f 431/1/4 430/1/4 432/1/4
f 432/1/4 430/1/4 433/1/4
f 433/1/4 430/1/4 434/1/4
f 432/1/4 433/1/4 435/1/4
f 435/1/4 433/1/4 436/1/4
f 436/1/4 433/1/4 437/1/4
f 437/1/4 433/1/4 438/1/4
f 436/1/4 437/1/4 439/1/4
f 439/1/4 437/1/4 440/1/4
f 443/2/5 442/2/5 441/2/5
f 444/2/5 442/2/5 443/2/5
f 448/1/5 446/1/5 445/1/5
f 449/1/5 446/1/5 448/1/5
f 451/2/5 448/2/5 447/2/5
f 452/2/5 448/2/5 451/2/5
f 453/2/5 450/2/5 449/2/5
f 454/2/5 450/2/5 453/2/5
f 455/1/5 453/1/5 452/1/5
f 456/1/5 453/1/5 455/1/5
f 462/1/5 458/1/5 457/1/5
f 463/1/5 458/1/5 462/1/5
f 464/1/5 460/1/5 459/1/5
f 465/1/5 460/1/5 464/1/5
f 467/2/5 462/2/5 461/2/5
f 468/2/5 462/2/5 467/2/5
f 471/2/5 466/2/5 465/2/5
f 472/2/5 466/2/5 471/2/5
f 473/1/5 469/1/5 468/1/5
f 474/1/5 469/1/5 473/1/5
f 475/1/5 471/1/5 470/1/5
f 476/1/5 471/1/5 475/1/5
f 482/1/5 478/1/5 477/1/5
f 483/1/5 478/1/5 482/1/5
f 484/1/5 480/1/5 479/1/5
f 485/1/5 480/1/5 484/1/5
f 487/2/5 482/2/5 481/2/5
f 488/2/5 482/2/5 487/2/5
f 491/2/5 486/2/5 485/2/5
f 492/2/5 486/2/5 491/2/5
f 493/1/5 489/1/5 488/1/5
f 494/1/5 489/1/5 493/1/5
f 495/1/5 491/1/5 490/1/5
f 496/1/5 491/1/5 495/1/5
f 502/1/5 498/1/5 497/1/5
f 503/1/5 498/1/5 502/1/5
f 504/1/5 500/1/5 499/1/5
f 505/1/5 500/1/5 504/1/5
f 507/2/5 502/2/5 501/2/5
f 508/2/5 502/2/5 507/2/5
f 511/2/5 506/2/5 505/2/5
f 512/2/5 506/2/5 511/2/5
f 513/1/5 509/1/5 508/1/5
f 514/1/5 509/1/5 513/1/5
f 515/1/5 511/1/5 510/1/5
f 516/1/5 511/1/5 515/1/5
f 522/1/5 518/1/5 517/1/5
f 523/1/5 518/1/5 522/1/5
f 524/1/5 520/1/5 519/1/5
f 525/1/5 520/1/5 524/1/5
f 527/2/5 522/2/5 521/2/5
f 528/2/5 522/2/5 527/2/5
f 531/2/5 526/2/5 525/2/5
f 532/2/5 526/2/5 531/2/5
f 533/1/5 529/1/5 528/1/5
f 534/1/5 529/1/5 533/1/5
f 535/1/5 531/1/5 530/1/5
f 536/1/5 531/1/5 535/1/5
f 542/1/5 538/1/5 537/1/5
f 543/1/5 538/1/5 542/1/5
f 544/1/5 540/1/5 539/1/5
f 545/1/5 540/1/5 544/1/5
f 547/2/5 542/2/5 541/2/5
f 548/2/5 542/2/5 547/2/5
f 551/2/5 546/2/5 545/2/5
f 552/2/5 546/2/5 551/2/5
f 553/1/5 549/1/5 548/1/5
f 554/1/5 549/1/5 553/1/5
f 555/1/5 551/1/5 550/1/5
f 556/1/5 551/1/5 555/1/5
f 557/1/6 558/1/6 564/1/6
f 564/1/6 558/1/6 565/1/6
f 559/1/6 560/1/6 566/1/6
f 566/1/6 560/1/6 567/1/6
f 561/1/6 562/1/6 568/1/6
f 568/1/6 562/1/6 569/1/6
f 563/2/6 564/2/6 571/2/6
f 571/2/6 564/2/6 572/2/6
f 569/2/6 570/2/6 577/2/6
f 577/2/6 570/2/6 578/2/6
f 572/1/6 573/1/6 579/1/6
f 579/1/6 573/1/6 580/1/6
f 574/1/6 575/1/6 581/1/6
f 581/1/6 575/1/6 582/1/6
f 576/1/6 577/1/6 583/1/6
f 583/1/6 577/1/6 584/1/6
f 585/1/6 586/1/6 593/1/6
f 593/1/6 586/1/6 594/1/6
f 587/1/6 588/1/6 595/1/6
f 595/1/6 588/1/6 596/1/6
f 589/1/6 590/1/6 599/1/6
f 599/1/6 590/1/6 600/1/6
f 591/1/6 592/1/6 601/1/6
f 601/1/6 592/1/6 602/1/6
f 597/2/6 598/2/6 607/2/6
f 607/2/6 598/2/6 608/2/6
f 603/1/6 604/1/6 613/1/6
f 613/1/6 604/1/6 614/1/6
f 605/1/6 606/1/6 615/1/6
f 615/1/6 606/1/6 616/1/6
f 609/1/6 610/1/6 617/1/6
f 617/1/6 610/1/6 618/1/6
f 611/1/6 612/1/6 619/1/6
f 619/1/6 612/1/6 620/1/6
f 621/1/6 622/1/6 627/1/6
f 627/1/6 622/1/6 628/1/6
f 623/1/6 624/1/6 633/1/6
f 633/1/6 624/1/6 634/1/6
f 625/2/6 626/2/6 637/2/6
f 637/2/6 626/2/6 638/2/6
f 629/2/6 630/2/6 641/2/6
f 641/2/6 630/2/6 642/2/6
f 631/2/6 632/2/6 643/2/6
f 643/2/6 632/2/6 644/2/6
f 635/2/6 636/2/6 647/2/6
f 647/2/6 636/2/6 648/2/6
f 639/1/6 640/1/6 649/1/6
f 649/1/6 640/1/6 650/1/6
f 645/1/6 646/1/6 651/1/6
f 651/1/6 646/1/6 652/1/6
f 653/2/6 654/2/6 657/2/6
f 657/2/6 654/2/6 658/2/6
f 655/2/6 656/2/6 659/2/6
f 659/2/6 656/2/6 660/2/6
